<svg xmlns="http://www.w3.org/2000/svg" viewBox="0 0 48 48">
  <rect width="48" height="48" rx="11" fill="#f6f8fb" />
  <path d="M24 20 L24 43" stroke="#15803d" stroke-width="2.8" stroke-linecap="round" />
  <path d="M24 34 C29.5 31.5, 34 34, 34 34 C31.5 38.5, 26 38.5, 24 34 Z" fill="#22a355" />
  <path d="M24 28 C18.5 25.5, 14 28, 14 28 C16.5 32.5, 22 32.5, 24 28 Z" fill="#15803d" />
  <g transform="translate(24 19)">
    <g fill="#2563eb">
      <ellipse cx="0" cy="-9.5" rx="5.6" ry="8.4" />
      <ellipse cx="0" cy="-9.5" rx="5.6" ry="8.4" transform="rotate(144)" />
      <ellipse cx="0" cy="-9.5" rx="5.6" ry="8.4" transform="rotate(288)" />
    </g>
    <g fill="#4f83f1">
      <ellipse cx="0" cy="-9.5" rx="5.6" ry="8.4" transform="rotate(72)" />
      <ellipse cx="0" cy="-9.5" rx="5.6" ry="8.4" transform="rotate(216)" />
    </g>
    <circle r="6.2" fill="#ffffff" />
    <circle r="6.2" fill="none" stroke="#1d4ed8" stroke-width="1.8" />
    <circle r="2.1" fill="#1d4ed8" />
  </g>
</svg>
